# xmcd
#
# Track frame offsets: 
#        150
#        12925
#        31515
#        44677
#        60712
#        80257
#        85742
#        96550
#        107242
#        122785
#        140072
#        155442
#        184105
#        199182
#        208872
#
# Disc length: 2885 seconds
#
# Revision: 4
# Processed by: cddbd v1.5.2PL0 Copyright (c) Steve Scherf et al.
# Submitted via: ExactAudioCopyFreeDBPlugin 1.0
#
DISCID=d10b430f
DTITLE=Giant Sand - Is All Over The Map
DYEAR=2004
DGENRE=Alternative
TTITLE0=Classico
TTITLE1=NYC Of Time
TTITLE2=Remote
TTITLE3=Flying Around The Sun At Remarkable Speed
TTITLE4=Cracklin Water
TTITLE5=Rag
TTITLE6=Muss
TTITLE7=Drab
TTITLE8=Fool
TTITLE9=Les Forçats Innocents
TTITLE10=Napoli
TTITLE11=Hood (View From A Heidelburg Hotel)
TTITLE12=A Classico Reprise
TTITLE13=Anarchistic Bolshevistic Cowboy Bundle
TTITLE14=Ploy
EXTD=
EXTT0=
EXTT1=
EXTT2=
EXTT3=
EXTT4=
EXTT5=
EXTT6=
EXTT7=
EXTT8=
EXTT9=
EXTT10=
EXTT11=
EXTT12=
EXTT13=
EXTT14=
PLAYORDER=
